<svg width="1080" height="1080" viewBox="0 0 1080 1080" fill="none" xmlns="http://www.w3.org/2000/svg">
<rect width="1080" height="1080" rx="80" fill="white"/>
<path d="M400 160C455.228 160 500 204.772 500 260L500 820C500 875.228 455.228 920 400 920C344.772 920 300 875.228 300 820L300 260C300 204.772 344.772 160 400 160Z" fill="#FA0016"/>
<path d="M680 160C735.228 160 780 204.772 780 260C780 315.228 735.228 360 680 360C624.772 360 580 315.228 580 260C580 204.772 624.772 160 680 160Z" fill="#FA0016"/>
<path d="M680 720C735.228 720 780 764.772 780 820C780 875.228 735.228 920 680 920C624.772 920 580 875.228 580 820C580 764.772 624.772 720 680 720Z" fill="#FA0016"/>
</svg>
