<svg width="135" height="32" viewBox="0 0 135 32" fill="none" xmlns="http://www.w3.org/2000/svg">
<path d="M0 2C0 0.895431 0.895431 0 2 0H30C31.1046 0 32 0.895431 32 2V30C32 31.1046 31.1046 32 30 32H2C0.895431 32 0 31.1046 0 30V2Z" fill="#FA0016"/>
<path d="M11.6295 4.66667C13.2659 4.66667 14.5924 5.99323 14.5924 7.62963L14.5924 24.2222C14.5924 25.8586 13.2659 27.1852 11.6295 27.1852C9.99309 27.1852 8.66652 25.8586 8.66652 24.2222L8.66652 7.62963C8.66652 5.99323 9.99309 4.66667 11.6295 4.66667Z" fill="white"/>
<path d="M20.2219 4.66667C21.8583 4.66667 23.1849 5.99323 23.1849 7.62963C23.1849 9.26603 21.8583 10.5926 20.2219 10.5926C18.5855 10.5926 17.259 9.26603 17.259 7.62963C17.259 5.99323 18.5855 4.66667 20.2219 4.66667Z" fill="white"/>
<path d="M20.2219 13.2593C21.8583 13.2593 23.1849 14.5858 23.1849 16.2222C23.1849 17.8586 21.8583 19.1852 20.2219 19.1852C18.5855 19.1852 17.259 17.8586 17.259 16.2222C17.259 14.5858 18.5855 13.2593 20.2219 13.2593Z" fill="white"/>
<path d="M47.45 23.725C45.3367 23.6983 43.5667 22.9683 42.14 21.535C40.7133 20.095 40 18.315 40 16.195C40 14.0617 40.7167 12.285 42.15 10.865C43.59 9.43833 45.3633 8.725 47.47 8.725C48.15 8.725 48.8 8.79833 49.42 8.945C50.04 9.09167 50.6 9.30167 51.1 9.575C51.6 9.84833 52.0133 10.1417 52.34 10.455C52.6667 10.7617 52.83 10.915 52.83 10.915L51.05 12.755C51.05 12.755 50.9267 12.6383 50.68 12.405C50.44 12.1717 50.16 11.9683 49.84 11.795C49.52 11.615 49.1633 11.4783 48.77 11.385C48.3767 11.2917 47.9633 11.245 47.53 11.245C46.1433 11.245 44.9867 11.705 44.06 12.625C43.1333 13.5383 42.67 14.7417 42.67 16.235C42.67 17.7283 43.1367 18.9417 44.07 19.875C45.0033 20.8083 46.16 21.275 47.54 21.275C48.7933 21.275 49.8167 20.9483 50.61 20.295C51.4033 19.6417 51.86 18.735 51.98 17.575H47.4V15.405H54.54L54.55 16.675C54.55 18.8017 53.8933 20.5083 52.58 21.795C51.2667 23.0817 49.5567 23.725 47.45 23.725Z" fill="#374151"/>
<path d="M55.8022 23.385V13.125H58.3422V15.055L58.0422 14.725H58.4022C58.5955 14.165 58.9622 13.7017 59.5022 13.335C60.0489 12.9683 60.6255 12.785 61.2322 12.785C61.4189 12.785 61.6055 12.8017 61.7922 12.835C61.9855 12.8683 62.1589 12.9117 62.3122 12.965C62.4722 13.0117 62.5522 13.035 62.5522 13.035V15.565C62.5522 15.565 62.4455 15.5283 62.2322 15.455C62.0255 15.3817 61.8022 15.3217 61.5622 15.275C61.3289 15.2283 61.1155 15.205 60.9222 15.205C60.2155 15.205 59.6255 15.4683 59.1522 15.995C58.6855 16.515 58.4522 17.175 58.4522 17.975V23.385H55.8022Z" fill="#374151"/>
<path d="M63.813 23.385V13.125H66.463V23.385H63.813ZM65.143 11.355C64.7096 11.355 64.3396 11.205 64.033 10.905C63.733 10.605 63.583 10.2417 63.583 9.815C63.583 9.36833 63.733 9.00167 64.033 8.715C64.3396 8.42167 64.7096 8.275 65.143 8.275C65.583 8.275 65.9496 8.42167 66.243 8.715C66.5363 9.00167 66.683 9.36833 66.683 9.815C66.683 10.2417 66.5363 10.605 66.243 10.905C65.9496 11.205 65.583 11.355 65.143 11.355Z" fill="#374151"/>
<path d="M72.7959 23.725C71.4093 23.725 70.2593 23.225 69.3459 22.225C68.4393 21.2183 67.9859 19.9017 67.9859 18.275C67.9859 16.6617 68.4493 15.3483 69.3759 14.335C70.3093 13.315 71.4826 12.805 72.8959 12.805C73.5826 12.805 74.2126 12.9517 74.7859 13.245C75.3659 13.5383 75.7993 13.925 76.0859 14.405H76.1559V9.065H78.7759V23.385H76.2459V21.645L76.5059 22.045H76.1759C75.8693 22.5517 75.4126 22.9583 74.8059 23.265C74.1993 23.5717 73.5293 23.725 72.7959 23.725ZM73.3959 21.485C74.1959 21.485 74.8659 21.1817 75.4059 20.575C75.9526 19.9683 76.2259 19.195 76.2259 18.255C76.2259 17.3083 75.9526 16.5383 75.4059 15.945C74.8593 15.3517 74.1893 15.055 73.3959 15.055C72.6026 15.055 71.9326 15.3517 71.3859 15.945C70.8393 16.5383 70.5659 17.3083 70.5659 18.255C70.5659 19.195 70.8359 19.9683 71.3759 20.575C71.9226 21.1817 72.5959 21.485 73.3959 21.485Z" fill="#374151"/>
<path d="M81.1931 23.385V9.065H85.9131C87.2865 9.065 88.3931 9.495 89.2331 10.355C90.0731 11.2083 90.4931 12.3117 90.4931 13.665C90.4931 15.005 90.0631 16.075 89.2031 16.875C88.3431 17.675 87.2131 18.075 85.8131 18.075H82.0931V16.505H85.8531C86.7265 16.505 87.4298 16.245 87.9631 15.725C88.5031 15.1983 88.7731 14.5117 88.7731 13.665C88.7731 12.7917 88.5131 12.0783 87.9931 11.525C87.4798 10.965 86.7998 10.685 85.9531 10.685H82.8831V23.385H81.1931Z" fill="#374151"/>
<path d="M96.2859 23.705C94.7793 23.705 93.5293 23.1883 92.5359 22.155C91.5426 21.1217 91.0459 19.8283 91.0459 18.275C91.0459 16.695 91.5426 15.3983 92.5359 14.385C93.5359 13.3717 94.7859 12.865 96.2859 12.865C97.7793 12.865 99.0259 13.3783 100.026 14.405C101.026 15.425 101.526 16.715 101.526 18.275C101.526 19.8283 101.029 21.1217 100.036 22.155C99.0493 23.1883 97.7993 23.705 96.2859 23.705ZM96.2859 22.165C97.2859 22.165 98.1259 21.8017 98.8059 21.075C99.4926 20.3483 99.8359 19.415 99.8359 18.275C99.8359 17.115 99.4893 16.1817 98.7959 15.475C98.1093 14.7617 97.2726 14.405 96.2859 14.405C95.2859 14.405 94.4426 14.7617 93.7559 15.475C93.0693 16.1883 92.7259 17.1217 92.7259 18.275C92.7259 19.415 93.0659 20.3483 93.7459 21.075C94.4259 21.8017 95.2726 22.165 96.2859 22.165Z" fill="#374151"/>
<path d="M104.898 23.385L101.658 13.185H103.398L105.538 20.345L105.808 21.245H105.868L106.138 20.405L108.418 13.185H110.158L112.438 20.355L112.718 21.225H112.778L113.038 20.365L115.188 13.185H116.898L113.608 23.385H111.868L109.488 15.985L109.288 15.265H109.228L109.008 15.985L106.648 23.385H104.898Z" fill="#374151"/>
<path d="M122.103 23.705C120.623 23.705 119.407 23.195 118.453 22.175C117.5 21.155 117.023 19.8517 117.023 18.265C117.023 16.7117 117.49 15.425 118.423 14.405C119.357 13.3783 120.537 12.865 121.963 12.865C123.437 12.865 124.617 13.3083 125.503 14.195C126.39 15.075 126.833 16.1717 126.833 17.485V18.605H118.013V17.205H125.053C125.013 16.405 124.717 15.7383 124.163 15.205C123.61 14.665 122.877 14.395 121.963 14.395C121.003 14.395 120.22 14.7483 119.613 15.455C119.013 16.155 118.713 17.0917 118.713 18.265C118.713 19.4517 119.047 20.3983 119.713 21.105C120.38 21.8117 121.207 22.165 122.193 22.165C122.66 22.165 123.06 22.1017 123.393 21.975C123.727 21.8483 124.027 21.6717 124.293 21.445C124.56 21.2117 124.86 20.835 125.193 20.315L126.623 21.015C126.263 21.7417 125.863 22.285 125.423 22.645C124.99 22.9983 124.51 23.2617 123.983 23.435C123.457 23.615 122.83 23.705 122.103 23.705Z" fill="#374151"/>
<path d="M128.433 23.385V13.185H130.053V15.015L129.783 14.825H130.103C130.296 14.2717 130.679 13.8083 131.253 13.435C131.826 13.055 132.419 12.865 133.033 12.865C133.199 12.865 133.376 12.8783 133.563 12.905C133.756 12.9317 133.923 12.9683 134.063 13.015C134.209 13.055 134.283 13.075 134.283 13.075V14.865C134.283 14.865 134.179 14.835 133.973 14.775C133.773 14.715 133.566 14.6717 133.353 14.645C133.146 14.6117 132.979 14.595 132.853 14.595C132.106 14.595 131.463 14.8917 130.923 15.485C130.389 16.0783 130.123 16.7983 130.123 17.645V23.385H128.433Z" fill="#374151"/>
</svg>
